<?xml version="1.0" encoding="utf-8"?><svg xmlns="http://www.w3.org/2000/svg" xmlns:xlink="http://www.w3.org/1999/xlink"><symbol viewBox="0 0 344.96 344.96" id="check" xmlns="http://www.w3.org/2000/svg"><g data-name="Слой 2"><path d="M321.85 86.24l-40-23.11-23.1-40H212.5L172.48 0l-40 23.11H86.24l-23.11 40-40 23.1v46.21L0 172.48l23.11 40v46.21l40 23.11 23.11 40h46.21l40 23.1 40-23.11h46.21l23.11-40 40-23.11V212.5l23.11-40-23.11-40V86.24zM156.91 243.07a16.79 16.79 0 0 1-23.34 0l-50.45-50.44a16.19 16.19 0 0 1 0-22.89l13.35-13.35a16.19 16.19 0 0 1 22.89 0l25.87 25.87 80.34-80.35a16.19 16.19 0 0 1 22.89 0l13.35 13.35a16.19 16.19 0 0 1 0 22.89z" data-name="Capa 1"/></g></symbol><symbol viewBox="0 0 890.5 890.5" id="money" xmlns="http://www.w3.org/2000/svg"><path d="M208.1 180.6l355-96.9-18.8-38C532 21 502 10.8 477.3 23.1L159.5 180.6h48.6zm465.2-94.1c-4.4 0-8.8.6-13.2 1.8l-83.4 22.8L322 180.6h415.1l-15.6-57.2c-6-22.3-26.2-36.9-48.2-36.9zm115.9 129.1H50.1c-15.8 0-29.9 7.3-39.1 18.8-4.2 5.3-7.4 11.4-9.2 18.1-1.1 4.2-1.8 8.6-1.8 13.1v557.1c0 27.6 22.4 50 50 50h739.1c27.6 0 50-22.4 50-50V683.2H542.4c-46.9 0-85-38.1-85-85V487c0-23 9.2-43.9 24.1-59.2 13.2-13.6 30.9-22.8 50.7-25.1 3.3-.4 6.7-.6 10.1-.6h296.8V265.6c.1-27.6-22.3-50-49.9-50z"/><path d="M874.2 449.9c-5-4.6-10.9-8.1-17.5-10.4-5.1-1.7-10.5-2.7-16.2-2.7H542.4c-27.6 0-50 22.4-50 50v111.3c0 27.6 22.4 50 50 50h298.1c5.7 0 11.1-1 16.2-2.7 6.6-2.2 12.5-5.8 17.5-10.4 10-9.1 16.3-22.3 16.3-36.9V486.8c0-14.6-6.3-27.8-16.3-36.9zM646.8 552.4c0 13.8-11.2 25-25 25h-16.6c-13.8 0-25-11.2-25-25v-16.6c0-8 3.7-15.1 9.6-19.6 4.3-3.3 9.6-5.4 15.4-5.4h16.6c13.8 0 25 11.2 25 25v16.6z"/></symbol><symbol viewBox="0 0 578.1 578.1" id="phone-receiver" xmlns="http://www.w3.org/2000/svg"><path d="M577.8 456.1c1.2 9.4-1.6 17.5-8.6 24.5l-81.4 80.8c-3.7 4.1-8.5 7.6-14.4 10.4-5.9 2.9-11.7 4.7-17.4 5.5-.4 0-1.6.1-3.7.3-2 .2-4.7.3-8 .3-7.8 0-20.3-1.3-37.6-4s-38.6-9.2-63.6-19.6c-25.1-10.4-53.6-26-85.4-46.8-31.8-20.8-65.7-49.4-101.6-85.7-28.6-28.2-52.2-55.1-71-80.8-18.8-25.7-33.9-49.5-45.3-71.3-11.4-21.8-20-41.6-25.7-59.4s-9.6-33-11.6-45.9-2.9-22.9-2.4-30.3c.4-7.3.6-11.4.6-12.2.8-5.7 2.7-11.5 5.5-17.4s6.3-10.7 10.4-14.4L98 8.8c5.7-5.7 12.2-8.6 19.6-8.6 5.3 0 10 1.5 14.1 4.6s7.5 6.8 10.4 11.3l65.5 124.2c3.7 6.5 4.7 13.7 3.1 21.4s-5.1 14.3-10.4 19.6l-30 30c-.8.8-1.5 2.1-2.1 4s-.9 3.4-.9 4.6c1.6 8.6 5.3 18.4 11 29.4 4.9 9.8 12.4 21.7 22.6 35.8s24.7 30.3 43.5 48.7c18.4 18.8 34.7 33.4 49 43.8 14.3 10.4 26.2 18.1 35.8 22.9s16.9 7.9 22 8.9l7.6 1.5c.8 0 2.1-.3 4-.9 1.8-.6 3.2-1.3 4-2.1l34.9-35.5c7.3-6.5 15.9-9.8 25.7-9.8 6.9 0 12.4 1.2 16.5 3.7h.6l118.1 69.8c8.5 5.1 13.6 11.9 15.2 20z"/></symbol></svg>